Coordinates
version=1
nRows=16
nColumns=22
inDegrees=yes

Units are S.I. units (second, meters, Newtons, ...)
If the header above contains a line with 'inDegrees', this indicates whether rotational values are in degrees (yes) or radians (no).

endheader
time	pelvis_tilt	pelvis_list	pelvis_rotation	pelvis_tx	pelvis_ty	pelvis_tz	hip_flexion_r	hip_adduction_r	hip_rotation_r	knee_angle_r	ankle_angle_r	subtalar_angle_r	hip_flexion_l	hip_adduction_l	hip_rotation_l	knee_angle_l	ankle_angle_l	subtalar_angle_l	lumbar_extension	lumbar_bending	lumbar_rotation
      4.80000000	     -5.33169290	     -3.38959432	     -2.77909037	     -0.94934522	      0.91668648	      0.01901496	     -1.87610075	      5.55784200	     -4.36849983	    -13.01266089	     20.48303393	      4.09421995	     34.65862998	    -10.48996197	     -5.66409114	    -26.62593476	     -3.80994884	      1.58530308	    -13.02499008	      0.87389171	      3.15888060
      4.81000000	     -5.31171356	     -3.70298444	     -2.93308643	     -0.95453687	      0.91771886	      0.02043531	     -1.51422420	      5.93267790	     -4.29160564	    -13.07583873	     20.11030458	      4.57809954	     34.97734576	    -10.95289826	     -5.40235867	    -27.44904792	     -3.28573699	      1.65296036	    -13.02325681	      1.36855030	      3.33295059
      4.82000000	     -5.24114737	     -3.93948401	     -3.12993016	     -0.95942286	      0.91896542	      0.02187331	     -1.23153518	      6.22886229	     -4.13593404	    -13.12139701	     19.70628914	      4.92487446	     35.12766914	    -11.37173330	     -5.33669533	    -28.26704848	     -2.58974722	      1.61830184	    -13.04889400	      1.75859680	      3.49445879
      4.83000000	     -5.15631423	     -4.08955439	     -3.34813279	     -0.96404693	      0.92031268	      0.02331390	     -0.97671721	      6.44104202	     -3.99897075	    -13.16681665	     19.27594394	      5.17326818	     35.16023122	    -11.72775059	     -5.44525881	    -29.07545333	     -1.83942920	      1.51975718	    -13.05956197	      2.03103262	      3.66733899
      4.84000000	     -5.05464782	     -4.14871713	     -3.57143039	     -0.96843747	      0.92172072	      0.02476627	     -0.76767134	      6.57267888	     -3.88632907	    -13.17577449	     18.81031561	      5.28651691	     35.08204975	    -12.00993333	     -5.69970957	    -29.87787756	     -1.08193261	      1.32414707	    -13.06431807	      2.17811671	      3.82049887
      4.85000000	     -4.91280795	     -4.12499202	     -3.79459728	     -0.97264608	      0.92318138	      0.02620184	     -0.61387705	      6.63510119	     -3.75669177	    -13.17796659	     18.35845519	      5.17818300	     34.86337525	    -12.20230920	     -6.01080418	    -30.65340425	     -0.28667474	      1.16645331	    -13.10265565	      2.21376998	      3.91265617
      4.86000000	     -4.72999866	     -4.02459519	     -3.99451606	     -0.97661279	      0.92466249	      0.02761013	     -0.54420764	      6.63657451	     -3.66407724	    -13.12578356	     17.89243146	      4.76315973	     34.52790856	    -12.30765088	     -6.38643288	    -31.43336651	      0.45924523	      0.84491232	    -13.15888813	      2.14261064	      3.95203524
      4.87000000	     -4.52308362	     -3.87689912	     -4.16809008	     -0.98043076	      0.92607937	      0.02894011	     -0.51058014	      6.60499666	     -3.57613560	    -13.07032003	     17.45839969	      4.16907512	     34.11454937	    -12.32806122	     -6.70417447	    -32.23298577	      1.20323821	      0.61005698	    -13.23359094	      2.01131832	      3.91376590
      4.88000000	     -4.29051985	     -3.69088535	     -4.30288963	     -0.98409413	      0.92741591	      0.03015104	     -0.51296377	      6.54339251	     -3.52607846	    -13.01686438	     17.05943370	      3.36520290	     33.63607981	    -12.25740010	     -6.92877573	    -33.06388648	      1.91448932	      0.36185932	    -13.32712189	      1.83661474	      3.79677106
      4.89000000	     -4.03458837	     -3.49827921	     -4.39711513	     -0.98763765	      0.92864350	      0.03120417	     -0.54438309	      6.47878958	     -3.48626132	    -12.97575253	     16.71205093	      2.45255730	     33.11541705	    -12.11414951	     -7.00358028	    -33.94810304	      2.61672346	      0.14378916	    -13.44700838	      1.66640384	      3.60030845
      4.90000000	     -3.79149902	     -3.28169411	     -4.45627651	     -0.99103095	      0.92970408	      0.03209762	     -0.56488224	      6.38561674	     -3.48997774	    -12.94891050	     16.41539779	      1.41858548	     32.59795098	    -11.89257991	     -6.97144371	    -34.89787157	      3.25319988	     -0.08449617	    -13.54013030	      1.48163411	      3.34742733
      4.91000000	     -3.53547689	     -3.09493716	     -4.47409730	     -0.99430795	      0.93062847	      0.03282545	     -0.60250251	      6.31564802	     -3.48946308	    -12.94353754	     16.18364690	      0.44001604	     32.06847190	    -11.63107577	     -6.76175770	    -35.92200111	      3.89848416	     -0.25478983	    -13.65003285	      1.34431014	      3.04506859
      4.92000000	     -3.26957385	     -2.96198096	     -4.43377571	     -0.99747686	      0.93141488	      0.03332985	     -0.65650087	      6.28289551	     -3.53326282	    -12.95443206	     16.01980713	     -0.37022210	     31.54651131	    -11.34787372	     -6.37292423	    -37.03226263	      4.52418432	     -0.36233031	    -13.77840402	      1.29583165	      2.67652218
      4.93000000	     -3.03566433	     -2.84307107	     -4.39184380	     -1.00054084	      0.93203748	      0.03371663	     -0.66426884	      6.24509583	     -3.56109107	    -13.00674462	     15.89562905	     -1.12742192	     31.04376181	    -11.04882018	     -5.92736512	    -38.19495044	      5.13829009	     -0.45914652	    -13.86792477	      1.27468654	      2.31163311
      4.94000000	     -2.83175207	     -2.75738860	     -4.34750121	     -1.00353853	      0.93251529	      0.03396518	     -0.62191847	      6.21751639	     -3.56701413	    -13.10735115	     15.80501115	     -1.74681237	     30.55797359	    -10.74942423	     -5.41297873	    -39.39512826	      5.75289689	     -0.52810381	    -13.93028981	      1.30804289	      1.96554434
      4.95000000	     -2.64150585	     -2.74297188	     -4.27420789	     -1.00644966	      0.93286815	      0.03407430	     -0.55505779	      6.23967138	     -3.62322391	    -13.24718658	     15.76047233	     -2.08257890	     30.09416979	    -10.50041091	     -4.86180854	    -40.65475476	      6.33723002	     -0.53529172	    -13.98476328	      1.43887928	      1.60076117
